Coordinates
version=1
nRows=14
nColumns=40
inDegrees=yes

Units are S.I. units (second, meters, Newtons, ...)
If the header above contains a line with 'inDegrees', this indicates whether rotational values are in degrees (yes) or radians (no).

endheader
time	pelvis_tilt	pelvis_list	pelvis_rotation	pelvis_tx	pelvis_ty	pelvis_tz	hip_flexion_r	hip_adduction_r	hip_rotation_r	knee_angle_r	knee_angle_r_beta	ankle_angle_r	subtalar_angle_r	mtp_angle_r	hip_flexion_l	hip_adduction_l	hip_rotation_l	knee_angle_l	knee_angle_l_beta	ankle_angle_l	subtalar_angle_l	mtp_angle_l	lumbar_extension	lumbar_bending	lumbar_rotation	arm_flex_r	arm_add_r	arm_rot_r	elbow_flex_r	pro_sup_r	wrist_flex_r	wrist_dev_r	arm_flex_l	arm_add_l	arm_rot_l	elbow_flex_l	pro_sup_l	wrist_flex_l	wrist_dev_l
      0.71500000	      0.82717404	     -5.41158924	     -7.40113633	      0.25250424	      0.90125822	      0.26084317	    -20.40583832	      0.42171916	    -13.65785443	     13.18786805	      0.23017172	      5.58655326	     12.61432251	      0.00000000	     26.45229146	    -12.96180005	    -23.55082160	      9.78796641	      0.17083224	     -0.61759577	     12.64714485	      0.00000000	     -4.46706516	      3.74267359	     -2.61346697	     44.02510487	    -16.33955140	     44.02510487	     74.96340080	     44.98742002	      0.00000000	      0.00000000	     44.02510487	    -16.33955140	     44.02510487	     74.96340080	     44.98742002	      0.00000000	      0.00000000
      0.72000000	      1.36843045	     -4.47089884	     -8.05871714	      0.26052190	      0.90206864	      0.26150897	    -21.00571354	     -0.99967690	    -13.09207338	     13.71810215	      0.23942605	      4.99034566	     12.01863222	      0.00000000	     25.15943688	    -12.06609073	    -24.13929213	      9.45066964	      0.16494530	     -1.51746602	     11.58194907	      0.00000000	     -4.91832151	      2.61279089	     -1.32903915	     44.02933208	    -16.32996214	     44.02933208	     74.96391486	     44.98790227	      0.00000000	      0.00000000	     44.02933208	    -16.32996214	     44.02933208	     74.96391486	     44.98790227	      0.00000000	      0.00000000
      0.72500000	      1.51757811	     -4.15682328	     -8.15428095	      0.26845234	      0.90200638	      0.26069705	    -21.24618338	     -1.57700339	    -12.91571509	     14.26510127	      0.24897299	      3.97613669	     11.51851995	      0.00000000	     24.94298160	    -11.79265148	    -24.31479267	     10.19148615	      0.17787499	     -1.96122366	     10.78324751	      0.00000000	     -4.94273274	      2.22018824	     -1.10538517	     44.02986644	    -16.32875199	     44.02986644	     74.96397948	     44.98796205	      0.00000000	      0.00000000	     44.02986644	    -16.32875199	     44.02986644	     74.96397948	     44.98796205	      0.00000000	      0.00000000
      0.73000000	      1.80755128	     -3.54132763	     -8.58476422	      0.27636609	      0.90242712	      0.26080799	    -21.52018134	     -2.53835708	    -12.36145113	     14.90603187	      0.26015933	      3.05447128	     10.50803015	      0.00000000	     24.29506929	    -11.27039840	    -24.72844553	     10.51741263	      0.18356348	     -2.69221897	      9.80526309	      0.00000000	     -5.10187947	      1.38323634	     -0.38450910	     44.03249702	    -16.32279985	     44.03249702	     74.96429660	     44.98825293	      0.00000000	      0.00000000	     44.03249702	    -16.32279985	     44.03249702	     74.96429660	     44.98825293	      0.00000000	      0.00000000
      0.73500000	      2.00377972	     -3.21570389	     -8.62368603	      0.28436160	      0.90259143	      0.26001541	    -21.75773115	     -3.10619003	    -12.24695401	     15.50348532	      0.27058686	      1.83581425	      9.93585939	      0.00000000	     24.05232155	    -10.98239762	    -24.83744656	     11.33771490	      0.19788045	     -3.21140893	      9.05423165	      0.00000000	     -5.16522353	      0.97192762	     -0.12393502	     44.03296411	    -16.32174427	     44.03296411	     74.96435267	     44.98830385	      0.00000000	      0.00000000	     44.03296411	    -16.32174427	     44.03296411	     74.96435267	     44.98830385	      0.00000000	      0.00000000
      0.74000000	      2.26432883	     -2.61983694	     -8.96484323	      0.29223713	      0.90311809	      0.25988835	    -21.89509686	     -4.00751062	    -11.70685135	     16.28460374	      0.28421995	      0.63513704	      8.62118911	      0.00000000	     23.53673591	    -10.46794474	    -25.20166797	     11.83392884	      0.20654102	     -3.95943023	      8.08217766	      0.00000000	     -5.27912992	      0.21718155	      0.54622525	     44.03516593	    -16.31677262	     44.03516593	     74.96461622	     44.98854120	      0.00000000	      0.00000000	     44.03516593	    -16.31677262	     44.03516593	     74.96461622	     44.98854120	      0.00000000	      0.00000000
      0.74500000	      2.48328489	     -2.18150996	     -9.06757997	      0.30019270	      0.90355288	      0.25939551	    -22.01503328	     -4.68041886	    -11.51913845	     17.04654672	      0.29751837	     -0.71254460	      7.56884773	      0.00000000	     23.21936376	    -10.08236442	    -25.33666559	     12.58005461	      0.21956337	     -4.54863136	      7.29153882	      0.00000000	     -5.35978025	     -0.34748862	      0.99839254	     44.03663213	    -16.31346597	     44.03663213	     74.96479099	     44.98869696	      0.00000000	      0.00000000	     44.03663213	    -16.31346597	     44.03663213	     74.96479099	     44.98869696	      0.00000000	      0.00000000
      0.75000000	      2.71139285	     -1.84385416	     -9.03812845	      0.30815247	      0.90403712	      0.25847258	    -22.14442055	     -5.23148906	    -11.40577948	     17.82138237	      0.31104180	     -2.20769875	      6.86091163	      0.00000000	     22.95992885	     -9.75644509	    -25.33146165	     13.43187504	      0.23443044	     -5.05673586	      6.67437692	      0.00000000	     -5.48403474	     -0.74784908	      1.25323667	     44.03708826	    -16.31243804	     44.03708826	     74.96484523	     44.98874501	      0.00000000	      0.00000000	     44.03708826	    -16.31243804	     44.03708826	     74.96484523	     44.98874501	      0.00000000	      0.00000000
      0.75500000	      2.93600166	     -1.44481333	     -9.01987271	      0.31605648	      0.90460370	      0.25769787	    -22.15189321	     -5.84180049	    -11.35815380	     18.77539552	      0.32769247	     -3.85094557	      5.69554051	      0.00000000	     22.71156972	     -9.38937927	    -25.41366685	     14.29232104	      0.24944806	     -5.54915503	      5.94548812	      0.00000000	     -5.57925122	     -1.25647442	      1.56594867	     44.03759728	    -16.31129131	     44.03759728	     74.96490569	     44.98879841	      0.00000000	      0.00000000	     44.03759728	    -16.31129131	     44.03759728	     74.96490569	     44.98879841	      0.00000000	      0.00000000
      0.76000000	      3.13198191	     -1.04311973	     -8.99301176	      0.32398818	      0.90521123	      0.25694450	    -22.06964805	     -6.43600969	    -11.26017321	     19.82593808	      0.34602790	     -5.51284932	      4.42092159	      0.00000000	     22.45964179	     -9.00156306	    -25.41951091	     15.08565834	      0.26329441	     -5.99556432	      5.28955258	      0.00000000	     -5.63630995	     -1.76068865	      1.88130300	     44.03813528	    -16.31007968	     44.03813528	     74.96496952	     44.98885462	      0.00000000	      0.00000000	     44.03813528	    -16.31007968	     44.03813528	     74.96496952	     44.98885462	      0.00000000	      0.00000000
      0.76500000	      3.22274470	     -0.55856863	     -9.04249613	      0.33185286	      0.90571862	      0.25638314	    -21.73521182	     -7.10962213	    -11.08058343	     21.07937233	      0.36790445	     -7.16051213	      2.63448505	      0.00000000	     22.25995528	     -8.53347689	    -25.36970089	     15.73787185	      0.27467768	     -6.48695480	      4.57532211	      0.00000000	     -5.53777429	     -2.33819987	      2.30792517	     44.03932786	    -16.30739536	     44.03932786	     74.96511073	     44.98897832	      0.00000000	      0.00000000	     44.03932786	    -16.30739536	     44.03932786	     74.96511073	     44.98897832	      0.00000000	      0.00000000
      0.77000000	      3.39770544	     -0.16260615	     -8.95034570	      0.33974225	      0.90636694	      0.25549588	    -21.48337174	     -7.70555250	    -11.15321362	     22.36035944	      0.39026189	     -8.97314216	      1.28832587	      0.00000000	     22.02033308	     -8.09847956	    -25.22313564	     16.48280889	      0.28767929	     -6.81071884	      3.93532607	      0.00000000	     -5.57410369	     -2.77005161	      2.62016095	     44.04042703	    -16.30492326	     44.04042703	     74.96524053	     44.98909124	      0.00000000	      0.00000000	     44.04042703	    -16.30492326	     44.04042703	     74.96524053	     44.98909124	      0.00000000	      0.00000000
      0.77500000	      3.58641170	      0.19647740	     -8.80541832	      0.34761141	      0.90704819	      0.25446384	    -21.18480891	     -8.27870907	    -11.33318801	     23.74538269	      0.41443511	    -10.84428613	      0.01647143	      0.00000000	     21.76700605	     -7.67090701	    -25.03062498	     17.23542702	      0.30081495	     -6.99792947	      3.35024797	      0.00000000	     -5.63096334	     -3.16077711	      2.84484858	     44.04126409	    -16.30304187	     44.04126409	     74.96533915	     44.98917656	      0.00000000	      0.00000000	     44.04126409	    -16.30304187	     44.04126409	     74.96533915	     44.98917656	      0.00000000	      0.00000000
      0.78000000	      3.56303232	      0.73668918	     -8.66607724	      0.35549652	      0.90729666	      0.25352347	    -20.46311576	     -9.06686054	    -11.65066718	     25.52805458	      0.44554860	    -12.44165467	     -1.31472001	      0.00000000	     21.70684275	     -7.02079657	    -24.70591733	     17.82275080	      0.31106568	     -7.23413866	      2.51629358	      0.00000000	     -5.38481033	     -3.73972304	      3.12775876	     44.04431379	    -16.29619630	     44.04431379	     74.96569686	     44.98948236	      0.00000000	      0.00000000	     44.04431379	    -16.29619630	     44.04431379	     74.96569686	     44.98948236	      0.00000000	      0.00000000
